<svg xmlns="http://www.w3.org/2000/svg" viewBox="0 0 1600 400" preserveAspectRatio="xMidYMax slice" aria-hidden="true">
  <g>
    <path d="M 0 100 Q 200 80 400 100 T 800 100 T 1200 100 T 1600 100" stroke="rgb(42,157,143)" stroke-width="1.8" stroke-opacity="0.55" fill="none" stroke-linecap="round"/>
    <path d="M 0 150 Q 200 170 400 150 T 800 150 T 1200 150 T 1600 150" stroke="rgb(127,199,196)" stroke-width="1.6" stroke-opacity="0.48" fill="none" stroke-linecap="round"/>
    <path d="M 0 200 Q 200 180 400 200 T 800 200 T 1200 200 T 1600 200" stroke="rgb(42,157,143)" stroke-width="1.6" stroke-opacity="0.42" fill="none" stroke-linecap="round"/>
    <path d="M 0 240 Q 200 260 400 240 T 800 240 T 1200 240 T 1600 240" stroke="rgb(127,199,196)" stroke-width="1.5" stroke-opacity="0.55" fill="none" stroke-linecap="round"/>
    <path d="M 0 280 Q 200 260 400 280 T 800 280 T 1200 280 T 1600 280" stroke="rgb(168,213,226)" stroke-width="1.4" stroke-opacity="0.42" fill="none" stroke-linecap="round"/>
    <path d="M 0 320 Q 200 340 400 320 T 800 320 T 1200 320 T 1600 320" stroke="rgb(42,157,143)" stroke-width="1.3" stroke-opacity="0.35" fill="none" stroke-linecap="round"/>
    <path d="M 0 360 Q 200 340 400 360 T 800 360 T 1200 360 T 1600 360" stroke="rgb(127,199,196)" stroke-width="1.3" stroke-opacity="0.4" fill="none" stroke-linecap="round"/>
  </g>
</svg>
